<svg width="611" height="97" viewBox="0 0 611 97" fill="none" xmlns="http://www.w3.org/2000/svg">
<rect width="611" height="97" fill="black"/>
<rect width="591" height="81" transform="translate(10 8)" fill="white"/>
<path d="M149.47 67.25H144.22V33.125H149.47V67.25ZM131.095 64.625H120.595V62H117.97V59.375H115.345V41H117.97V38.375H120.595V35.75H131.095V38.375H133.72V41H136.345V59.375H133.72V62H131.095V64.625ZM123.22 41H120.595V59.375H123.22V62H128.47V59.375H131.095V41H128.47V38.375H123.22V41ZM160.81 38.375H187.06V35.75H160.81V33.125H192.31V41H166.06V43.625H192.31V46.25H163.435V43.625H160.81V38.375ZM194.935 51.5H158.185V48.875H194.935V51.5ZM192.31 64.625H189.685V67.25H163.435V64.625H160.81V54.125H192.31V64.625ZM187.06 56.75H166.06V64.625H187.06V56.75ZM203.65 35.75H208.9V33.125H229.9V35.75H235.15V43.625H229.9V46.25H208.9V43.625H203.65V35.75ZM211.525 38.375H208.9V41H211.525V43.625H227.275V41H229.9V38.375H227.275V35.75H211.525V38.375ZM237.775 51.5H201.025V48.875H237.775V51.5ZM203.65 59.375H229.9V56.75H203.65V54.125H235.15V62H208.9V64.625H235.15V67.25H206.275V64.625H203.65V59.375ZM281.455 51.5H270.955V48.875H268.33V46.25H265.705V38.375H268.33V35.75H270.955V33.125H281.455V35.75H284.08V38.375H286.705V46.25H284.08V48.875H281.455V51.5ZM299.83 51.5H294.58V33.125H299.83V51.5ZM273.58 38.375H270.955V46.25H273.58V48.875H278.83V46.25H281.455V38.375H278.83V35.75H273.58V38.375ZM270.955 64.625H268.33V54.125H273.58V59.375H294.58V54.125H299.83V64.625H297.205V67.25H270.955V64.625ZM294.58 62H273.58V64.625H294.58V62ZM329.545 41V43.625H313.795V48.875H329.545V51.5H311.17V48.875H308.545V41H324.295V35.75H308.545V33.125H329.545V38.375H337.42V33.125H342.67V51.5H337.42V46.25H329.545V43.625H337.42V41H329.545ZM311.17 54.125H342.67V64.625H340.045V67.25H337.42V56.75H311.17V54.125ZM364.51 35.75H372.385V38.375H351.385V35.75H359.26V33.125H364.51V35.75ZM382.885 48.875H390.76V51.5H382.885V67.25H377.635V33.125H382.885V48.875ZM367.135 64.625H356.635V62H354.01V59.375H351.385V46.25H354.01V43.625H356.635V41H367.135V43.625H369.76V46.25H372.385V59.375H369.76V62H367.135V64.625ZM359.26 46.25H356.635V59.375H359.26V62H364.51V59.375H367.135V46.25H364.51V43.625H359.26V46.25ZM423.1 67.25H417.85V51.5H412.6V48.875H417.85V33.125H423.1V67.25ZM430.975 67.25H425.725V33.125H430.975V67.25ZM409.975 62H407.35V59.375H402.1V62H399.475V64.625H394.225V62H396.85V59.375H399.475V56.75H402.1V35.75H407.35V56.75H409.975V59.375H412.6V62H415.225V64.625H409.975V62ZM439.69 48.875V41H442.315V38.375H444.94V35.75H465.94V38.375H468.565V41H471.19V48.875H468.565V51.5H465.94V62H473.815V64.625H437.065V62H444.94V51.5H442.315V48.875H439.69ZM463.315 38.375H447.565V41H444.94V48.875H447.565V51.5H463.315V48.875H465.94V41H463.315V38.375ZM460.69 54.125H450.19V62H460.69V54.125ZM485.155 62V56.75H493.03V62H485.155Z" fill="#AFAFAF"/>
</svg>
