<svg width="1905" height="290" viewBox="0 0 1905 290" fill="none" xmlns="http://www.w3.org/2000/svg">
<path d="M51 98.9301C51 98.9301 599.378 73 951.508 73C1303.64 73 1852.02 98.9301 1852.02 98.9301V290.008C1852.02 290.008 1303.69 268.387 951.508 268.387C599.326 268.387 51 290.008 51 290.008V98.9301Z" fill="#5D4234"/>
<path d="M1805.15 80.0316L1835.6 83.9512V105.509H1803.7L1805.15 80.0316Z" fill="#5D4234"/>
<path d="M96.9366 80.0316L66.4847 83.9512V105.509H98.3867L96.9366 80.0316Z" fill="#5D4234"/>
<path d="M1803.7 103.517L1835.6 106.457V80H1803.7V103.517Z" fill="#5D4234"/>
<path d="M98.3867 103.517L66.4847 106.457V80H98.3867V103.517Z" fill="#5D4234"/>
<path d="M952.5 30.2148C1138.5 30.2148 1376.44 37.735 1567.98 45.2617C1663.73 49.0243 1747.85 52.7865 1808.02 55.6084C1838.11 57.0193 1862.21 58.1957 1878.79 59.0186C1884.8 59.3169 1889.83 59.5705 1893.79 59.7705V259.3C1889.99 259.14 1885.32 258.944 1879.81 258.716C1863.22 258.029 1839.1 257.048 1809 255.871C1748.78 253.517 1664.62 250.378 1568.81 247.238C1377.23 240.961 1138.95 234.679 952.5 234.679C766.05 234.679 527.773 240.961 336.189 247.238C240.38 250.378 156.217 253.517 96.0049 255.871C65.8985 257.048 41.7788 258.029 25.1846 258.716C19.6818 258.944 15.0066 259.14 11.2148 259.3V59.7705C15.1743 59.5705 20.1961 59.3169 26.207 59.0186C42.7858 58.1957 66.8886 57.0193 96.9766 55.6084C157.153 52.7865 241.269 49.0243 337.018 45.2617C528.557 37.735 766.501 30.2148 952.5 30.2148Z" fill="#9F6D53" stroke="#C5B5B5" stroke-width="22.4292"/>
<path d="M1854.31 224.5L1886.52 229.395V256.316H1852.78L1854.31 224.5Z" fill="#C5B5B5"/>
<path d="M47.5463 224.5L15.3374 229.395V256.316H49.0801L47.5463 224.5Z" fill="#C5B5B5"/>
<path d="M1852.78 67.8684L1886.52 71.5395V38.5H1852.78V67.8684Z" fill="#C5B5B5"/>
<path d="M49.0801 67.8684L15.3374 71.5395V38.5H49.0801V67.8684Z" fill="#C5B5B5"/>
<path d="M781.214 137.75H796.964V143H775.964V137.75H770.714V132.5H760.214V137.75H754.964V143H733.964V137.75H749.714V132.5H754.964V127.25H760.214V116.75H733.964V111.5H760.214V106.25H770.714V111.5H796.964V116.75H770.714V127.25H775.964V132.5H781.214V137.75ZM802.214 153.5H770.714V174.5H760.214V153.5H728.714V148.25H802.214V153.5ZM848.624 137.75H853.874V143H843.374V137.75H838.124V132.5H827.624V137.75H822.374V143H811.874V137.75H817.124V132.5H822.374V127.25H827.624V116.75H811.874V111.5H827.624V106.25H838.124V111.5H853.874V116.75H838.124V127.25H843.374V132.5H848.624V137.75ZM880.124 143H869.624V127.25H853.874V122H869.624V106.25H880.124V143ZM827.624 169.25H880.124V174.5H822.374V169.25H817.124V148.25H827.624V169.25ZM1004.44 174.5H993.944V143H978.194V137.75H993.944V106.25H1004.44V174.5ZM967.694 164H962.444V158.75H951.944V164H946.694V169.25H936.194V164H941.444V158.75H946.694V153.5H951.944V111.5H962.444V153.5H967.694V158.75H972.944V164H978.194V169.25H967.694V164ZM1087.6 174.5H1077.1V106.25H1087.6V174.5ZM1024.6 164H1019.35V111.5H1029.85V137.75H1045.6V111.5H1056.1V164H1050.85V169.25H1024.6V164ZM1045.6 143H1029.85V164H1045.6V143ZM1149.76 137.75H1144.51V132.5H1134.01V137.75H1128.76V143H1107.76V137.75H1123.51V132.5H1128.76V127.25H1134.01V111.5H1144.51V127.25H1149.76V132.5H1155.01V137.75H1170.76V143H1149.76V137.75ZM1176.01 169.25H1102.51V164H1176.01V169.25Z" fill="#FBFBFB"/>
</svg>
